<svg width="49" height="40" viewBox="0 0 49 40" fill="none" xmlns="http://www.w3.org/2000/svg">
	<g transform="translate(0.000000,41.000000) scale(0.100000,-0.100000)" fill="white" stroke="none">
		<path d="M238 378 l-24 -31 24 -24 c13 -13 25 -23 26 -21 50 71 49 68 31 89 -24 25 -28 24 -57 -13z"/>
		<path d="M291 319 c-22 -29 -23 -31 -6 -49 10 -11 21 -20 24 -20 3 0 19 16 35 36 28 35 28 38 11 50 -27 20 -37 17 -64 -17z"/>
		<path d="M152 308 c-38 -15 -51 -25 -48 -37 3 -9 10 -51 17 -93 l12 -78 48 -6 c27 -4 49 -8 49 -10 0 -8 -65 -63 -74 -64 -6 0 2 12 17 28 l26 27 -37 0 c-32 0 -38 4 -46 30 -6 17 -11 32 -12 33 -2 2 -19 -9 -38 -25 -31 -24 -36 -34 -36 -70 l0 -43 129 0 128 0 37 47 c20 25 36 49 36 53 0 3 -23 13 -50 22 -49 16 -51 16 -45 -3 4 -10 4 -19 2 -19 -7 0 -79 132 -74 136 2 3 16 -5 31 -17 25 -20 28 -20 52 -5 l24 17 -42 49 c-24 28 -45 50 -48 49 -3 0 -29 -10 -58 -21z"/>
		<path d="M327 248 c-56 -63 -56 -63 -36 -83 16 -17 22 -18 39 -7 18 11 20 10 17 -10 -3 -36 25 -28 77 20 41 38 45 46 34 60 -7 9 -14 19 -15 21 -2 3 -14 -6 -28 -19 -30 -28 -34 -16 -5 15 l20 21 -24 23 -23 22 -56 -63z"/>
	</g>
</svg>
