<?xml version="1.0" standalone="no"?>
<!DOCTYPE svg PUBLIC "-//W3C//DTD SVG 20010904//EN"
 "http://www.w3.org/TR/2001/REC-SVG-20010904/DTD/svg10.dtd">
<svg version="1.0" xmlns="http://www.w3.org/2000/svg"
 width="49.000000pt" height="41.000000pt" viewBox="0 0 49.000000 41.000000"
 preserveAspectRatio="xMidYMid meet">

<g transform="translate(0.000000,41.000000) scale(0.100000,-0.100000)"
fill="#000000" stroke="none">
<path d="M315 310 c-26 -12 -64 -19 -107 -19 -55 -1 -80 -7 -133 -33 -36 -18
-65 -35 -65 -38 0 -4 19 -31 43 -62 l43 -55 40 17 40 18 158 -64 c146 -58 157
-61 154 -41 -2 17 -26 33 -93 67 -67 34 -91 51 -96 70 -12 44 -10 58 12 65 18
6 84 47 98 60 8 8 -22 35 -38 34 -9 0 -34 -9 -56 -19z"/>
<path d="M310 180 c0 -15 20 -30 81 -61 46 -22 79 -35 77 -27 -2 7 -33 27 -68
45 -73 36 -76 43 -4 13 74 -32 64 -15 -11 19 -37 17 -69 31 -71 31 -2 0 -4 -9
-4 -20z"/>
</g>
</svg>
