<?xml version="1.0" standalone="no"?>
<!DOCTYPE svg PUBLIC "-//W3C//DTD SVG 20010904//EN"
 "http://www.w3.org/TR/2001/REC-SVG-20010904/DTD/svg10.dtd">
<svg version="1.0" xmlns="http://www.w3.org/2000/svg"
 width="49.000000pt" height="41.000000pt" viewBox="0 0 49.000000 41.000000"
 preserveAspectRatio="xMidYMid meet">

<g transform="translate(0.000000,41.000000) scale(0.100000,-0.100000)"
fill="#000000" stroke="none">
<path d="M94 363 c-4 -12 -12 -19 -19 -17 -16 7 -29 -12 -15 -21 5 -3 10 -11
10 -17 0 -6 -6 -6 -15 2 -9 7 -16 11 -18 9 -28 -50 -28 -49 -5 -78 13 -16 46
-42 75 -59 l51 -30 29 32 c24 25 28 36 22 56 -5 14 -11 37 -14 52 -7 38 -40
46 -71 17 -21 -20 -22 -24 -9 -32 10 -5 21 -4 31 3 17 15 18 11 2 -26 -9 -20
-21 -30 -40 -32 -32 -3 -36 5 -11 23 14 11 15 15 4 29 -11 13 -10 20 8 42 17
22 19 30 9 43 -7 9 -14 18 -16 21 -1 2 -5 -5 -8 -17z"/>
<path d="M371 361 c-8 -15 -6 -25 10 -45 18 -22 19 -29 8 -42 -11 -14 -10 -18
4 -29 25 -18 21 -26 -10 -23 -20 2 -32 12 -40 32 -17 37 -16 41 2 26 12 -10
19 -10 28 -1 8 8 6 16 -10 32 -27 27 -61 18 -68 -19 -14 -67 -24 -79 -142
-171 -67 -53 -128 -102 -135 -108 -10 -10 9 -13 93 -13 l105 0 69 84 c38 47
86 93 109 106 23 12 51 35 64 51 23 29 23 28 -5 78 -2 2 -9 -2 -18 -9 -9 -8
-15 -8 -15 -2 0 6 5 14 10 17 15 9 1 27 -16 21 -8 -3 -14 1 -14 9 0 23 -18 27
-29 6z"/>
<path d="M302 59 c-18 -28 -31 -53 -29 -55 2 -3 51 -3 108 -2 l103 3 -67 53
c-36 28 -70 52 -74 52 -5 0 -23 -23 -41 -51z"/>
</g>
</svg>
