<svg width="24" height="17" viewBox="0 0 24 17" fill="none" xmlns="http://www.w3.org/2000/svg">
<g clip-path="url(#clip0_1194_2960)">
<path d="M8.71286 2.42608C10.2143 2.42836 11.6646 2.95892 12.7977 3.92043L14.5593 2.20123C12.9582 0.79002 10.8775 0.00878906 8.72006 0.00878906C6.56264 0.00878906 4.48196 0.79002 2.88086 2.20123L4.62326 3.92043C5.75754 2.95786 7.20973 2.42723 8.71286 2.42608Z" fill="white"/>
<path d="M15.0869 2.70801L13.3253 4.42721C14.1937 5.36987 14.7391 6.55353 14.8854 7.81314C15.0317 9.07275 14.7715 10.3455 14.1413 11.4539L10.6517 8.1748L9.07725 4.47406V10.0439L12.5333 13.2903C11.441 14.1218 10.0954 14.5734 8.71005 14.5734C7.32475 14.5734 5.97914 14.1218 4.88685 13.2903L8.34285 10.0439V4.47406L6.76845 8.18417L3.27885 11.4633C2.64856 10.3549 2.38842 9.08212 2.53469 7.82251C2.68097 6.5629 3.22637 5.37924 4.09485 4.43658L2.33325 2.70801C1.17732 3.9199 0.409109 5.43481 0.122912 7.06678C-0.163286 8.69875 0.0449849 10.3768 0.72216 11.8948C1.39933 13.4129 2.51595 14.705 3.93493 15.6125C5.35392 16.52 7.01353 17.0034 8.71005 17.0034C10.4066 17.0034 12.0662 16.52 13.4852 15.6125C14.9042 14.705 16.0208 13.4129 16.6979 11.8948C17.3751 10.3768 17.5834 8.69875 17.2972 7.06678C17.011 5.43481 16.2428 3.9199 15.0869 2.70801Z" fill="white"/>
<path d="M23.2649 4.79249H18.7193C18.2164 3.50345 17.4579 2.32387 16.4873 1.32129L15.6953 2.11297C17.3608 3.84254 18.2881 6.12676 18.2881 8.50026C18.2881 10.8738 17.3608 13.158 15.6953 14.8876L16.5065 15.6792C17.4713 14.6758 18.2233 13.4961 18.7193 12.208H23.2457C23.3438 12.2105 23.4413 12.1938 23.5327 12.159C23.624 12.1241 23.7072 12.0717 23.7775 12.0049C23.8477 11.938 23.9035 11.8582 23.9416 11.77C23.9797 11.6818 23.9993 11.587 23.9993 11.4913V5.50922C23.9993 5.31913 23.9219 5.13683 23.7842 5.00242C23.6465 4.86801 23.4597 4.79249 23.2649 4.79249Z" fill="#C96527"/>
<path d="M20.5828 9.92199L22.3876 8.259C22.4983 8.16417 22.6011 8.06077 22.6948 7.94983C22.8201 7.79027 22.8937 7.59776 22.906 7.39706V6.99887C22.9133 6.93975 22.9133 6.87999 22.906 6.82086C22.8916 6.74992 22.869 6.68078 22.8388 6.61475L19.786 9.42544C19.69 9.51444 19.5892 9.60345 19.498 9.70651C19.3484 9.87202 19.2664 10.0854 19.2676 10.3061V10.9338H22.3828C22.503 10.9343 22.6204 10.8983 22.7188 10.8308C22.829 10.7553 22.9168 10.6527 22.9733 10.5334C23.0298 10.4141 23.053 10.2824 23.0404 10.1515V9.92199H20.5828ZM22.5124 6.23062C22.3899 6.13542 22.2369 6.08563 22.0804 6.09008H20.266C20.207 6.08325 20.1474 6.08325 20.0884 6.09008C19.9751 6.12604 19.8701 6.18344 19.7795 6.25899C19.6889 6.33455 19.6145 6.42678 19.5604 6.53043C19.4407 6.7288 19.3808 6.95613 19.3876 7.18625V7.6547H20.4196V7.07851H21.6004L22.5124 6.23062Z" fill="white"/>
<path d="M15.14 15.5808H15.0776V15.6698H15.0488V15.4309H15.1496C15.1597 15.4301 15.1699 15.4315 15.1793 15.435C15.1888 15.4386 15.1973 15.4442 15.2042 15.4514C15.2111 15.4586 15.2163 15.4672 15.2193 15.4767C15.2223 15.4861 15.2231 15.4961 15.2216 15.5058C15.2234 15.5224 15.219 15.539 15.2093 15.5528C15.1997 15.5665 15.1853 15.5764 15.1688 15.5808L15.2264 15.6698H15.188L15.14 15.5808ZM15.0776 15.5527H15.1448C15.1576 15.5527 15.1698 15.5477 15.1788 15.539C15.1878 15.5302 15.1928 15.5183 15.1928 15.5058C15.1928 15.4934 15.1878 15.4815 15.1788 15.4727C15.1698 15.4639 15.1576 15.459 15.1448 15.459H15.0776V15.5527Z" fill="white"/>
<path d="M15.1305 15.7774C15.0988 15.7793 15.067 15.775 15.0371 15.7646C15.0072 15.7542 14.9798 15.738 14.9565 15.717C14.9332 15.696 14.9144 15.6706 14.9014 15.6423C14.8885 15.6141 14.8814 15.5836 14.8809 15.5526C14.8809 15.4905 14.9061 15.4309 14.9512 15.387C14.9962 15.343 15.0572 15.3184 15.1209 15.3184C15.1845 15.3184 15.2456 15.343 15.2906 15.387C15.3356 15.4309 15.3609 15.4905 15.3609 15.5526C15.3596 15.6118 15.335 15.6683 15.292 15.7103C15.2491 15.7522 15.1912 15.7762 15.1305 15.7774ZM15.1305 15.3558C15.1042 15.3558 15.0782 15.3609 15.054 15.3709C15.0298 15.3808 15.0079 15.3954 14.9896 15.4137C14.9712 15.4321 14.9568 15.4538 14.9472 15.4776C14.9376 15.5015 14.933 15.527 14.9337 15.5526C14.9337 15.6035 14.9544 15.6524 14.9913 15.6884C15.0282 15.7244 15.0783 15.7446 15.1305 15.7446C15.1567 15.7453 15.1828 15.7408 15.2072 15.7314C15.2317 15.722 15.2539 15.708 15.2727 15.6901C15.2915 15.6722 15.3064 15.6508 15.3166 15.6272C15.3268 15.6036 15.3321 15.5782 15.3321 15.5526C15.3321 15.5004 15.3108 15.4504 15.273 15.4135C15.2352 15.3766 15.1839 15.3558 15.1305 15.3558Z" fill="white"/>
</g>
<defs>
<clipPath id="clip0_1194_2960">
<rect width="24" height="17" fill="white"/>
</clipPath>
</defs>
</svg>
